<svg width="13" height="13" viewBox="0 0 13 13" fill="none" xmlns="http://www.w3.org/2000/svg">
<path d="M2.84375 5.28125C2.95149 5.28125 3.05483 5.32405 3.13101 5.40024C3.2072 5.47642 3.25 5.57976 3.25 5.6875V6.5C3.25 7.36195 3.59241 8.1886 4.2019 8.7981C4.8114 9.40759 5.63805 9.75 6.5 9.75C7.36195 9.75 8.1886 9.40759 8.7981 8.7981C9.40759 8.1886 9.75 7.36195 9.75 6.5V5.6875C9.75 5.57976 9.7928 5.47642 9.86899 5.40024C9.94517 5.32405 10.0485 5.28125 10.1562 5.28125C10.264 5.28125 10.3673 5.32405 10.4435 5.40024C10.5197 5.47642 10.5625 5.57976 10.5625 5.6875V6.5C10.5625 7.50712 10.1884 8.47834 9.51285 9.22524C8.83726 9.97214 7.90832 10.4415 6.90625 10.5422V12.1875H9.34375C9.45149 12.1875 9.55483 12.2303 9.63101 12.3065C9.7072 12.3827 9.75 12.486 9.75 12.5938C9.75 12.7015 9.7072 12.8048 9.63101 12.881C9.55483 12.9572 9.45149 13 9.34375 13H3.65625C3.54851 13 3.44517 12.9572 3.36899 12.881C3.2928 12.8048 3.25 12.7015 3.25 12.5938C3.25 12.486 3.2928 12.3827 3.36899 12.3065C3.44517 12.2303 3.54851 12.1875 3.65625 12.1875H6.09375V10.5422C5.09168 10.4415 4.16274 9.97214 3.48715 9.22524C2.81156 8.47834 2.43749 7.50712 2.4375 6.5V5.6875C2.4375 5.57976 2.4803 5.47642 2.55649 5.40024C2.63267 5.32405 2.73601 5.28125 2.84375 5.28125Z" fill="black"/>
<path d="M8.125 6.5C8.125 6.93098 7.95379 7.3443 7.64905 7.64905C7.3443 7.95379 6.93098 8.125 6.5 8.125C6.06902 8.125 5.6557 7.95379 5.35095 7.64905C5.0462 7.3443 4.875 6.93098 4.875 6.5V2.4375C4.875 2.00652 5.0462 1.5932 5.35095 1.28845C5.6557 0.983705 6.06902 0.8125 6.5 0.8125C6.93098 0.8125 7.3443 0.983705 7.64905 1.28845C7.95379 1.5932 8.125 2.00652 8.125 2.4375V6.5ZM6.5 0C5.85353 0 5.23355 0.256807 4.77643 0.713927C4.31931 1.17105 4.0625 1.79103 4.0625 2.4375V6.5C4.0625 7.14647 4.31931 7.76645 4.77643 8.22357C5.23355 8.68069 5.85353 8.9375 6.5 8.9375C7.14647 8.9375 7.76645 8.68069 8.22357 8.22357C8.68069 7.76645 8.9375 7.14647 8.9375 6.5V2.4375C8.9375 1.79103 8.68069 1.17105 8.22357 0.713927C7.76645 0.256807 7.14647 0 6.5 0Z" fill="black"/>
</svg>
